custom-analysis
version=1
nRows=7
nColumns=98
inDegrees=no

This file contains tibia displacement and acting force.

Units are S.I. units (seconds, meters, Newtons, ...)
Angles are in degrees.

endheader
time	APT	SIT	knee_angle	aACL_R_force	pACL_R_force	aPCL_R_force	pPCL_R_force	aMCL_R_force	mMCL_R_force	pMCL_R_force	aLCL_R_force	mLCL_R_force	pLCL_R_force	aPCL_L_force	pPCL_L_force	aMCL_L_force	aLCL_L_force	aACL_R_length	pACL_R_length	aPCL_R_length	pPCL_R_length	aMCL_R_length	mMCL_R_length	pMCL_R_length	aLCL_R_length	mLCL_R_length	pLCL_R_length	aPCL_L_length	pPCL_L_length	aMCL_L_length	aLCL_L_length	aACL_R_strain	pACL_R_strain	aPCL_R_strain	pPCL_R_strain	aMCL_R_strain	mMCL_R_strain	pMCL_R_strain	aLCL_R_strain	mLCL_R_strain	pLCL_R_strain	aPCL_L_strain	pPCL_L_strain	aMCL_L_strain	aLCL_L_strain	femur_lat_meniscii_r.femur_lat_r.force.X	femur_lat_meniscii_r.femur_lat_r.force.Y	femur_lat_meniscii_r.femur_lat_r.force.Z	femur_lat_meniscii_r.femur_lat_r.torque.X	femur_lat_meniscii_r.femur_lat_r.torque.Y	femur_lat_meniscii_r.femur_lat_r.torque.Z	femur_lat_meniscii_r.meniscus_lat_r.force.X	femur_lat_meniscii_r.meniscus_lat_r.force.Y	femur_lat_meniscii_r.meniscus_lat_r.force.Z	femur_lat_meniscii_r.meniscus_lat_r.torque.X	femur_lat_meniscii_r.meniscus_lat_r.torque.Y	femur_lat_meniscii_r.meniscus_lat_r.torque.Z	femur_med_meniscii_r.femur_med_r.force.X	femur_med_meniscii_r.femur_med_r.force.Y	femur_med_meniscii_r.femur_med_r.force.Z	femur_med_meniscii_r.femur_med_r.torque.X	femur_med_meniscii_r.femur_med_r.torque.Y	femur_med_meniscii_r.femur_med_r.torque.Z	femur_med_meniscii_r.meniscus_med_r.force.X	femur_med_meniscii_r.meniscus_med_r.force.Y	femur_med_meniscii_r.meniscus_med_r.force.Z	femur_med_meniscii_r.meniscus_med_r.torque.X	femur_med_meniscii_r.meniscus_med_r.torque.Y	femur_med_meniscii_r.meniscus_med_r.torque.Z	femur_med_tibia_r.tibia_upper_r.force.X	femur_med_tibia_r.tibia_upper_r.force.Y	femur_med_tibia_r.tibia_upper_r.force.Z	femur_med_tibia_r.tibia_upper_r.torque.X	femur_med_tibia_r.tibia_upper_r.torque.Y	femur_med_tibia_r.tibia_upper_r.torque.Z	femur_med_tibia_r.femur_med_r.force.X	femur_med_tibia_r.femur_med_r.force.Y	femur_med_tibia_r.femur_med_r.force.Z	femur_med_tibia_r.femur_med_r.torque.X	femur_med_tibia_r.femur_med_r.torque.Y	femur_med_tibia_r.femur_med_r.torque.Z	femur_lat_tibia_r.tibia_upper_r.force.X	femur_lat_tibia_r.tibia_upper_r.force.Y	femur_lat_tibia_r.tibia_upper_r.force.Z	femur_lat_tibia_r.tibia_upper_r.torque.X	femur_lat_tibia_r.tibia_upper_r.torque.Y	femur_lat_tibia_r.tibia_upper_r.torque.Z	femur_lat_tibia_r.femur_lat_r.force.X	femur_lat_tibia_r.femur_lat_r.force.Y	femur_lat_tibia_r.femur_lat_r.force.Z	femur_lat_tibia_r.femur_lat_r.torque.X	femur_lat_tibia_r.femur_lat_r.torque.Y	femur_lat_tibia_r.femur_lat_r.torque.Z	femur_lat_meniscii_force_r	femur_med_meniscii_force_r	femur_lat_tibia_force_r	femur_med_tibia_force_r
      0.13739670	      0.00907193	      0.01042996	     40.20684888	     18.03093594	      9.61719154	    474.06406188	    331.12934893	      0.00000000	      0.00000000	      0.00000000	      0.00445211	      0.00000000	      0.00000000	      0.00000000	      0.00000000	      0.00000001	      0.00000000	      0.03198827	      0.02533032	      0.03436227	      0.03213285	      0.05785079	      0.05867644	      0.05670249	      0.05626229	      0.05229027	      0.04811372	      0.01525851	      0.01651186	      0.06550154	      0.04489616	      0.03169653	      0.01083938	      0.10506321	      0.07511600	     -0.03625378	     -0.01868200	     -0.03448967	      0.00509290	     -0.07152756	     -0.08079409	      0.00000079	     -0.32847694	      0.00000060	     -0.00000086	    404.13565152	    399.64221590	     53.13298264	    -31.29361175	     10.08451013	    162.57298440	   -404.13565152	   -399.64221590	    -53.13298264	     12.27458978	    -12.10112440	     -2.74403049	    402.36948328	    547.05186938	     -0.43694966	     12.11542328	     -8.23295855	    159.69431468	   -402.36948328	   -547.05186938	      0.43694966	    -10.13863992	      6.90761550	      1.34460765	    -31.88513987	   -201.00728491	     76.17599026	     -5.04638449	      1.64034166	      2.23315383	     31.88513987	    201.00728491	    -76.17599026	     34.87376893	     -0.77113492	     12.54535063	      0.00000000	      0.00000000	      0.00000000	      0.00000000	      0.00000000	      0.00000000	      0.00000000	      0.00000000	      0.00000000	      0.00000000	      0.00000000	      0.00000000	    570.84379598	    679.09288010	      0.00000000	    217.30939286
      0.13777159	      0.00911159	      0.01048461	     40.38393989	     18.21555668	      9.73728779	    478.13803231	    333.68300525	      0.00000000	      0.00000000	      0.00000000	      0.59093031	      0.00000000	      0.00000000	      0.00000000	      0.00000000	      0.00000001	      0.00000000	      0.03199830	      0.02533843	      0.03438432	      0.03214652	      0.05786252	      0.05867270	      0.05668442	      0.05626235	      0.05228131	      0.04809617	      0.01525851	      0.01651186	      0.06550154	      0.04489616	      0.03202028	      0.01116283	      0.10577216	      0.07557315	     -0.03605838	     -0.01874444	     -0.03479741	      0.00509399	     -0.07168669	     -0.08112931	      0.00000079	     -0.32847694	      0.00000060	     -0.00000086	    401.80782043	    396.74858566	     54.93623336	    -31.95701113	     10.03904397	    161.62142599	   -401.80782043	   -396.74858566	    -54.93623336	     12.23080393	    -12.06893774	     -2.68257513	    409.80643952	    555.56579205	      0.36810739	     11.93222409	     -8.37132245	    162.63402944	   -409.80643952	   -555.56579205	     -0.36810739	    -10.24374559	      7.01714380	      1.41042283	    -32.65264635	   -202.15932395	     76.26309301	     -5.05619366	      1.65993734	      2.25171765	     32.65264635	    202.15932395	    -76.26309301	     34.91964221	     -0.78628541	     12.85044335	      0.00000000	      0.00000000	      0.00000000	      0.00000000	      0.00000000	      0.00000000	      0.00000000	      0.00000000	      0.00000000	      0.00000000	      0.00000000	      0.00000000	    567.34200842	    690.35845955	      0.00000000	    218.51921410
      0.13832735	      0.00917042	      0.01056555	     40.64679760	     18.61582047	     10.07398029	    484.25834456	    337.61182935	      0.00000000	      0.00000000	      0.00000000	      1.53327167	      0.00000000	      0.00000000	      0.00000000	      0.00000000	      0.00000001	      0.00000000	      0.03201355	      0.02535084	      0.03441723	      0.03216700	      0.05788022	      0.05866750	      0.05665804	      0.05626291	      0.05226851	      0.04807067	      0.01525851	      0.01651186	      0.06550154	      0.04489616	      0.03251212	      0.01165826	      0.10683070	      0.07625861	     -0.03576355	     -0.01883148	     -0.03524652	      0.00510399	     -0.07191393	     -0.08161651	      0.00000079	     -0.32847694	      0.00000060	     -0.00000086	    402.50863043	    386.59632348	     54.31955951	    -31.45464350	     10.02881159	    161.99656739	   -402.50863043	   -386.59632348	    -54.31955951	     11.92042241	    -12.04979395	     -2.86425847	    423.03184639	    556.51770206	      0.63494549	     11.78130323	     -8.63388539	    168.01059797	   -423.03184639	   -556.51770206	     -0.63494549	    -10.20426952	      7.24207930	      1.18383677	    -33.46537678	   -203.38452449	     76.83981249	     -5.08134914	      1.69256008	      2.28422593	     33.46537678	    203.38452449	    -76.83981249	     35.16803193	     -0.80538521	     13.16739709	      0.00000000	      0.00000000	      0.00000000	      0.00000000	      0.00000000	      0.00000000	      0.00000000	      0.00000000	      0.00000000	      0.00000000	      0.00000000	      0.00000000	    560.73213699	    699.04813777	      0.00000000	    219.97625560
      0.13861091	      0.00919993	      0.01060688	     40.78096737	     18.46399368	      9.94998134	    487.51791401	    339.89883666	      0.00000000	      0.00000000	      0.00000000	      1.79911821	      0.00000000	      0.00000000	      0.00000000	      0.00000000	      0.00000001	      0.00000000	      0.03202120	      0.02535714	      0.03443430	      0.03217773	      0.05788927	      0.05866490	      0.05664469	      0.05626339	      0.05226218	      0.04805789	      0.01525851	      0.01651186	      0.06550154	      0.04489616	      0.03275875	      0.01190946	      0.10737963	      0.07661758	     -0.03561276	     -0.01887491	     -0.03547393	      0.00511254	     -0.07202636	     -0.08186072	      0.00000079	     -0.32847694	      0.00000060	     -0.00000086	    398.44587896	    386.45964011	     54.12654144	    -31.36343153	      9.92693129	    160.30079241	   -398.44587896	   -386.45964011	    -54.12654144	     11.89720586	    -11.93044270	     -2.69763747	    424.61013872	    560.70953482	      0.48309947	     11.90269543	     -8.66965073	    168.58902216	   -424.61013872	   -560.70953482	     -0.48309947	    -10.26021748	      7.27947091	      1.30205736	    -33.76161695	   -204.51078677	     76.77530359	     -5.08613617	      1.70115956	      2.31395878	     33.76161695	    204.51078677	    -76.77530359	     35.15096409	     -0.81133978	     13.27718696	      0.00000000	      0.00000000	      0.00000000	      0.00000000	      0.00000000	      0.00000000	      0.00000000	      0.00000000	      0.00000000	      0.00000000	      0.00000000	      0.00000000	    557.70947130	    703.34144320	      0.00000000	    221.04062053
      0.13900301	      0.00924022	      0.01066421	     40.96655014	     18.38815830	      9.85313562	    491.78075760	    342.37993879	      0.00000000	      0.00000000	      0.00000000	      1.77656426	      0.00000000	      0.00000000	      0.00000000	      0.00000000	      0.00000001	      0.00000000	      0.03203154	      0.02536570	      0.03445807	      0.03219273	      0.05790168	      0.05866124	      0.05662620	      0.05626411	      0.05225349	      0.04804031	      0.01525851	      0.01651186	      0.06550154	      0.04489616	      0.03309218	      0.01225115	      0.10814387	      0.07711952	     -0.03540607	     -0.01893610	     -0.03578867	      0.00512546	     -0.07218057	     -0.08219647	      0.00000079	     -0.32847694	      0.00000060	     -0.00000086	    395.85635736	    384.51563395	     54.29692749	    -31.38144133	      9.85928586	    159.22807899	   -395.85635736	   -384.51563395	    -54.29692749	     11.83607742	    -11.85425504	     -2.60313177	    426.26389289	    560.28346007	      0.57569917	     11.89335851	     -8.70218607	    169.24120284	   -426.26389289	   -560.28346007	     -0.57569917	    -10.29663094	      7.31213087	      1.32987587	    -34.15119695	   -205.75101046	     77.21302138	     -5.10899338	      1.72285356	      2.35055217	     34.15119695	    205.75101046	    -77.21302138	     35.34428223	     -0.82243188	     13.42183897	      0.00000000	      0.00000000	      0.00000000	      0.00000000	      0.00000000	      0.00000000	      0.00000000	      0.00000000	      0.00000000	      0.00000000	      0.00000000	      0.00000000	    554.52924607	    704.00198397	      0.00000000	    222.39971499
      0.13939511	      0.00928009	      0.01072190	     41.15221450	     18.26915256	      9.72014964	    495.86459117	    344.40845717	      0.00000000	      0.00000000	      0.00000000	      1.31759816	      0.00000000	      0.00000000	      0.00000000	      0.00000000	      0.00000001	      0.00000000	      0.03204160	      0.02537407	      0.03448180	      0.03220771	      0.05791381	      0.05865735	      0.05660755	      0.05626472	      0.05224470	      0.04802267	      0.01525851	      0.01651186	      0.06550154	      0.04489616	      0.03341654	      0.01258527	      0.10890699	      0.07762056	     -0.03520393	     -0.01900116	     -0.03610634	      0.00513631	     -0.07233667	     -0.08253364	      0.00000079	     -0.32847694	      0.00000060	     -0.00000086	    392.78051155	    383.91028789	     54.68075415	    -31.52098178	      9.78635634	    157.94026672	   -392.78051155	   -383.91028789	    -54.68075415	     11.81910265	    -11.77411182	     -2.46263893	    427.41883024	    564.96820530	      1.33997843	     11.70325926	     -8.73352689	    169.64160751	   -427.41883024	   -564.96820530	     -1.33997843	    -10.39302805	      7.33641401	      1.48567443	    -34.84447466	   -207.41035713	     77.70291297	     -5.13869689	      1.74890919	      2.38332647	     34.84447466	    207.41035713	    -77.70291297	     35.56575295	     -0.83811113	     13.69230940	      0.00000000	      0.00000000	      0.00000000	      0.00000000	      0.00000000	      0.00000000	      0.00000000	      0.00000000	      0.00000000	      0.00000000	      0.00000000	      0.00000000	    551.95436793	    708.43328902	      0.00000000	    224.21181134
      0.13978721	      0.00931967	      0.01077998	     41.33797856	     18.27545154	      9.68340511	    499.87078221	    346.29127998	      0.00000000	      0.00000000	      0.00000000	      0.90440252	      0.00000000	      0.00000000	      0.00000000	      0.00000000	      0.00000001	      0.00000000	      0.03205144	      0.02538230	      0.03450536	      0.03222253	      0.05792563	      0.05865318	      0.05658867	      0.05626513	      0.05223572	      0.04800486	      0.01525851	      0.01651186	      0.06550154	      0.04489616	      0.03373396	      0.01291377	      0.10966488	      0.07811646	     -0.03500710	     -0.01907093	     -0.03642781	      0.00514363	     -0.07249609	     -0.08287388	      0.00000079	     -0.32847694	      0.00000060	     -0.00000086	    390.32363658	    383.87435755	     54.90862071	    -31.60766654	      9.72765251	    156.90383605	   -390.32363658	   -383.87435755	    -54.90862071	     11.81084205	    -11.70828423	     -2.32915995	    432.59707537	    566.23413473	     -0.40812967	     12.50796620	     -8.86711445	    171.72346692	   -432.59707537	   -566.23413473	      0.40812967	    -10.53315516	      7.48320348	      1.45641934	    -35.73757448	   -209.54796288	     78.21176217	     -5.17380500	      1.77722406	      2.41741442	     35.73757448	    209.54796288	    -78.21176217	     35.80140571	     -0.85634529	     14.04461631	      0.00000000	      0.00000000	      0.00000000	      0.00000000	      0.00000000	      0.00000000	      0.00000000	      0.00000000	      0.00000000	      0.00000000	      0.00000000	      0.00000000	    550.20634337	    712.57384987	      0.00000000	    226.50519358
